<?xml version="1.0" encoding="UTF-8" standalone="no"?>
<!DOCTYPE svg PUBLIC "-//W3C//DTD SVG 1.1//EN"
 "http://www.w3.org/Graphics/SVG/1.1/DTD/svg11.dtd">
<!-- Generated by graphviz version 2.38.0 (20140413.2041)
 -->
<!-- Title: tfgraph Pages: 1 -->
<svg width="462pt" height="116pt"
 viewBox="0.00 0.00 461.50 116.00" xmlns="http://www.w3.org/2000/svg" xmlns:xlink="http://www.w3.org/1999/xlink">
<g id="graph0" class="graph" transform="scale(1 1) rotate(0) translate(4 112)">
<title>tfgraph</title>
<polygon fill="white" stroke="none" points="-4,4 -4,-112 457.5,-112 457.5,4 -4,4"/>
<!-- [root] aws_subnet.public&#45;2a -->
<g id="node1" class="node"><title>[root] aws_subnet.public&#45;2a</title>
<polygon fill="none" stroke="black" points="138,-108 0,-108 0,-72 138,-72 138,-108"/>
<text text-anchor="middle" x="69" y="-86.3" font-family="Times New Roman,serif" font-size="14.00">aws_subnet.public&#45;2a</text>
</g>
<!-- [root] aws_vpc.stage -->
<g id="node2" class="node"><title>[root] aws_vpc.stage</title>
<ellipse fill="none" stroke="black" cx="226" cy="-18" rx="64.189" ry="18"/>
<text text-anchor="middle" x="226" y="-14.3" font-family="Times New Roman,serif" font-size="14.00">aws_vpc.stage</text>
</g>
<!-- [root] aws_subnet.public&#45;2a&#45;&gt;[root] aws_vpc.stage -->
<g id="edge1" class="edge"><title>[root] aws_subnet.public&#45;2a&#45;&gt;[root] aws_vpc.stage</title>
<path fill="none" stroke="black" d="M107.407,-71.8761C130.648,-61.5137 160.298,-48.2937 184.137,-37.6648"/>
<polygon fill="black" stroke="black" points="185.587,-40.8507 193.295,-33.5818 182.737,-34.4573 185.587,-40.8507"/>
</g>
<!-- [root] aws_subnet.public&#45;2b -->
<g id="node3" class="node"><title>[root] aws_subnet.public&#45;2b</title>
<polygon fill="none" stroke="black" points="296,-108 156,-108 156,-72 296,-72 296,-108"/>
<text text-anchor="middle" x="226" y="-86.3" font-family="Times New Roman,serif" font-size="14.00">aws_subnet.public&#45;2b</text>
</g>
<!-- [root] aws_subnet.public&#45;2b&#45;&gt;[root] aws_vpc.stage -->
<g id="edge2" class="edge"><title>[root] aws_subnet.public&#45;2b&#45;&gt;[root] aws_vpc.stage</title>
<path fill="none" stroke="black" d="M226,-71.6966C226,-63.9827 226,-54.7125 226,-46.1124"/>
<polygon fill="black" stroke="black" points="229.5,-46.1043 226,-36.1043 222.5,-46.1044 229.5,-46.1043"/>
</g>
<!-- [root] aws_subnet.public&#45;2c -->
<g id="node4" class="node"><title>[root] aws_subnet.public&#45;2c</title>
<polygon fill="none" stroke="black" points="453.5,-108 314.5,-108 314.5,-72 453.5,-72 453.5,-108"/>
<text text-anchor="middle" x="384" y="-86.3" font-family="Times New Roman,serif" font-size="14.00">aws_subnet.public&#45;2c</text>
</g>
<!-- [root] aws_subnet.public&#45;2c&#45;&gt;[root] aws_vpc.stage -->
<g id="edge3" class="edge"><title>[root] aws_subnet.public&#45;2c&#45;&gt;[root] aws_vpc.stage</title>
<path fill="none" stroke="black" d="M345.349,-71.8761C321.96,-61.5137 292.12,-48.2937 268.129,-37.6648"/>
<polygon fill="black" stroke="black" points="269.474,-34.4325 258.913,-33.5818 266.638,-40.8325 269.474,-34.4325"/>
</g>
</g>
</svg>
